Coordinates
version=1
nRows=5
nColumns=46
inDegrees=yes

Units are S.I. units (second, meters, Newtons, ...)
Angles are in degrees.

endheader
time	pelvis_tilt	pelvis_list	pelvis_rotation	pelvis_tx	pelvis_ty	pelvis_tz	bb_angle	bb_tx	bb_ty	bb_tz	hip_flexion_r	hip_adduction_r	hip_rotation_r	knee_angle_r	knee_angle_r_beta	ankle_angle_r	subtalar_angle_r	mtp_angle_r	crank_angle_r	hip_flexion_l	hip_adduction_l	hip_rotation_l	knee_angle_l	knee_angle_l_beta	ankle_angle_l	subtalar_angle_l	mtp_angle_l	crank_angle_l	lumbar_extension	lumbar_bending	lumbar_rotation	arm_flex_r	arm_add_r	arm_rot_r	elbow_flex_r	pro_sup_r	wrist_flex_r	wrist_dev_r	arm_flex_l	arm_add_l	arm_rot_l	elbow_flex_l	pro_sup_l	wrist_flex_l	wrist_dev_l
      0.00500000	    -16.78002393	     -2.07865489	     -1.45639561	      0.18537703	      1.04119754	     -0.30435478	      0.00000000	      0.50000000	      0.00000000	      0.25000000	     89.01012321	     -3.66400968	      1.08358780	     90.95095926	      1.58739370	      7.61093808	     -5.80249063	      0.00000000	      0.00000000	     53.77652732	     -9.94295354	      1.15010339	     73.50555987	      1.28291404	     -4.34474590	     -5.38940267	      0.00000000	      0.00000000	    -54.82035153	      2.05236690	      3.21201303	     89.72754953	      2.06767757	     29.61534342	     25.12421118	     19.88779017	      0.00000000	      0.00000000	     89.38171956	     -1.44491066	     33.40132008	     26.11934141	     21.68849674	      0.00000000	      0.00000000
      0.01000000	    -16.67924620	     -2.07419887	     -1.40278599	      0.18535321	      1.04149866	     -0.30444262	      0.00000000	      0.50000000	      0.00000000	      0.25000000	     88.88168534	     -3.72459078	      1.07809290	     90.95134966	      1.58740051	      7.63806741	     -5.83942684	      0.00000000	      0.00000000	     53.69785068	     -9.86868984	      1.19271699	     73.45498731	      1.28203138	     -4.67371825	     -5.56773103	      0.00000000	      0.00000000	    -54.98543733	      2.08596218	      3.18370817	     89.73010111	      2.25860754	     28.22642379	     24.91268349	     21.72287281	      0.00000000	      0.00000000	     89.36928995	     -1.49155709	     32.91354009	     26.30328156	     23.48046405	      0.00000000	      0.00000000
      0.01500000	    -16.86954839	     -2.12154921	     -1.43547341	      0.18525781	      1.04128704	     -0.30430616	      0.00000000	      0.50000000	      0.00000000	      0.25000000	     89.07097459	     -3.64085948	      1.05443428	     90.94145205	      1.58722776	      7.63046685	     -5.87830341	      0.00000000	      0.00000000	     53.99552528	     -9.94308283	      1.26083673	     73.49875632	      1.28279529	     -4.85129348	     -5.38398023	      0.00000000	      0.00000000	    -54.76460736	      2.10493567	      3.26161996	     89.72562242	      2.43367553	     26.87630096	     24.58762814	     24.80594104	      0.00000000	      0.00000000	     89.38802916	     -1.14413787	     32.00103402	     25.10474475	     26.86849546	      0.00000000	      0.00000000
      0.02000000	    -16.88913946	     -2.44131285	     -1.44568339	      0.18505112	      1.04152224	     -0.30420740	      0.00000000	      0.50000000	      0.00000000	      0.25000000	     88.91897624	     -3.50801107	      0.76576174	     90.85806917	      1.58577246	      7.79804504	     -6.19166760	      0.00000000	      0.00000000	     54.15943585	    -10.19616209	      1.50299304	     73.49082583	      1.28265688	     -5.41859388	     -5.79526045	      0.00000000	      0.00000000	    -54.86716581	      2.41238597	      3.63190016	     89.73468494	      2.95624040	     24.26380481	     24.21458011	     26.82056322	      0.00000000	      0.00000000	     89.31328284	     -1.06693418	     29.15421664	     25.94746226	     29.21482330	      0.00000000	      0.00000000
      0.02500000	    -17.02771639	     -2.11124199	     -1.39925653	      0.18494545	      1.04166952	     -0.30408381	      0.00000000	      0.50000000	      0.00000000	      0.25000000	     89.18426174	     -3.65913825	      1.08143452	     90.94827871	      1.58734691	      7.82720900	     -6.00027158	      0.00000000	      0.00000000	     54.25486995	     -9.86958523	      1.37580190	     73.35499199	      1.28028613	     -5.55125588	     -5.45694733	      0.00000000	      0.00000000	    -54.60138236	      2.15064756	      3.32633952	     89.73029731	      1.67306324	     30.84174990	     24.45708878	     23.20988256	      0.00000000	      0.00000000	     89.40170949	     -1.78362312	     33.63618603	     24.89755728	     28.21357476	      0.00000000	      0.00000000
